<svg width="1000" height="1000" viewBox="0 0 1000 1000" fill="none" xmlns="http://www.w3.org/2000/svg">
<path opacity="0.35" fill-rule="evenodd" clip-rule="evenodd" d="M1000 0H0V1000H1000V0ZM369 439C364.029 439 360 443.029 360 448V550C360 554.971 364.029 559 369 559H631C635.971 559 640 554.971 640 550V448C640 443.029 635.971 439 631 439H369Z" fill="black"/>
<path fill-rule="evenodd" clip-rule="evenodd" d="M360 446C360 442.134 363.134 439 367 439H380C381.105 439 382 439.895 382 441V441C382 442.105 381.105 443 380 443H367C365.343 443 364 444.343 364 446V459C364 460.105 363.105 461 362 461V461C360.895 461 360 460.105 360 459V446Z" fill="white"/>
<path fill-rule="evenodd" clip-rule="evenodd" d="M360 552C360 555.866 363.134 559 367 559H380C381.105 559 382 558.105 382 557V557C382 555.895 381.105 555 380 555H367C365.343 555 364 553.657 364 552V539C364 537.895 363.105 537 362 537V537C360.895 537 360 537.895 360 539V552Z" fill="white"/>
<path fill-rule="evenodd" clip-rule="evenodd" d="M640 446C640 442.134 636.866 439 633 439H620C618.895 439 618 439.895 618 441V441C618 442.105 618.895 443 620 443H633C634.657 443 636 444.343 636 446V459C636 460.105 636.895 461 638 461V461C639.105 461 640 460.105 640 459V446Z" fill="white"/>
<path fill-rule="evenodd" clip-rule="evenodd" d="M640 552C640 555.866 636.866 559 633 559H620C618.895 559 618 558.105 618 557V557C618 555.895 618.895 555 620 555H633C634.657 555 636 553.657 636 552V539C636 537.895 636.895 537 638 537V537C639.105 537 640 537.895 640 539V552Z" fill="white"/>
<g opacity="0.1">
<rect x="360" y="454" width="4" height="92" fill="white"/>
<rect x="636" y="453" width="4" height="92" fill="white"/>
<rect x="374" y="439" width="251" height="4" fill="white"/>
<rect x="374" y="555" width="251" height="4" fill="white"/>
</g>
</svg>
