<svg width="1000" height="1000" viewBox="0 0 1000 1000" fill="none" xmlns="http://www.w3.org/2000/svg">
<path opacity="0.35" fill-rule="evenodd" clip-rule="evenodd" d="M1000 0H0V1000H1000V0ZM391 379C385.477 379 381 383.477 381 389V609C381 614.523 385.477 619 391 619H611C616.523 619 621 614.523 621 609V389C621 383.477 616.523 379 611 379H391Z" fill="black"/>
<path fill-rule="evenodd" clip-rule="evenodd" d="M381 386C381 382.134 384.134 379 388 379H401C402.105 379 403 379.895 403 381V381C403 382.105 402.105 383 401 383H388C386.343 383 385 384.343 385 386V399C385 400.105 384.105 401 383 401V401C381.895 401 381 400.105 381 399V386Z" fill="white"/>
<path fill-rule="evenodd" clip-rule="evenodd" d="M381 612C381 615.866 384.134 619 388 619H401C402.105 619 403 618.105 403 617V617C403 615.895 402.105 615 401 615H388C386.343 615 385 613.657 385 612V599C385 597.895 384.105 597 383 597V597C381.895 597 381 597.895 381 599V612Z" fill="white"/>
<path fill-rule="evenodd" clip-rule="evenodd" d="M621 386C621 382.134 617.866 379 614 379H601C599.895 379 599 379.895 599 381V381C599 382.105 599.895 383 601 383H614C615.657 383 617 384.343 617 386V399C617 400.105 617.895 401 619 401V401C620.105 401 621 400.105 621 399V386Z" fill="white"/>
<path fill-rule="evenodd" clip-rule="evenodd" d="M621 612C621 615.866 617.866 619 614 619H601C599.895 619 599 618.105 599 617V617C599 615.895 599.895 615 601 615H614C615.657 615 617 613.657 617 612V599C617 597.895 617.895 597 619 597V597C620.105 597 621 597.895 621 599V612Z" fill="white"/>
<g opacity="0.1">
<rect x="617" y="393" width="4" height="215" fill="white"/>
<rect x="395" y="379" width="211" height="4" fill="white"/>
<rect x="381" y="393" width="4" height="215" fill="white"/>
<rect x="395" y="615" width="211" height="4" fill="white"/>
</g>
</svg>
